<svg viewBox="0 0 1656 435" fill="none" xmlns="http://www.w3.org/2000/svg" class="w-99px h-22px"><g clip-path="url(#clip0)"><path d="M187.158 155.615V93.2495H131.476C129.556 93.2495 127.636 93.2495 124.756 93.2495C55.6332 93.2495 -0.0488281 148.898 -0.0488281 217.98C-0.0488281 287.061 55.6332 342.71 124.756 342.71C147.797 342.71 168.917 336.953 187.158 326.399V374.373H249.56V155.615H187.158ZM168.917 261.156C157.397 272.669 142.036 279.386 124.756 279.386C90.1945 279.386 62.3535 251.561 62.3535 217.02C62.3535 199.75 69.0737 184.399 80.5942 172.885C92.1146 161.371 107.475 154.655 124.756 154.655C125.716 154.655 127.636 154.655 128.596 154.655C143.957 155.615 158.357 162.331 168.917 172.885C180.438 184.399 187.158 199.75 187.158 217.02C187.158 234.291 180.438 250.602 168.917 261.156Z" fill="white"></path><path d="M1067.51 305.291C1045.43 327.359 1013.75 341.751 979.188 341.751C910.065 341.751 854.383 286.102 854.383 217.02C854.383 182.48 867.823 151.777 890.864 128.75C912.945 105.723 944.626 92.29 979.188 92.29H1041.59V154.655H979.188C961.907 154.655 946.546 161.371 935.026 172.885C923.505 184.399 916.785 199.75 916.785 217.02C916.785 251.561 944.626 279.386 979.188 279.386C996.468 279.386 1011.83 272.669 1023.35 261.156L1067.51 305.291Z" fill="white"></path><path d="M187.161 372.454H46.9961V434.819H187.161V372.454Z" fill="white"></path><path d="M1390.08 279.385H1327.68V341.75H1390.08V279.385Z" fill="white"></path><path d="M1265.28 217.02H1327.68V279.385H1202.87V341.75H1140.47V0.181152H1202.87V191.115L1301.76 93.2492H1390.08L1265.28 217.02Z" fill="white"></path><path d="M1536.01 93.2495C1534.09 93.2495 1533.13 93.2495 1531.21 93.2495C1529.29 93.2495 1528.33 93.2495 1526.41 93.2495C1493.77 94.209 1464.96 107.641 1442.88 129.709C1420.8 151.777 1406.4 183.439 1406.4 217.98C1406.4 287.061 1462.08 342.71 1531.21 342.71C1565.77 342.71 1596.49 328.318 1619.53 306.251C1641.61 284.183 1656.01 252.521 1656.01 217.98C1656.01 150.817 1603.21 96.1279 1536.01 93.2495ZM1593.61 279.386H1468.8V154.655H1593.61V279.386Z" fill="white"></path><path d="M1103.99 155.615H1041.59V217.98H1103.99V155.615Z" fill="white"></path><path d="M539.492 155.615H477.09V93.2495H414.687C380.126 93.2495 349.405 107.641 326.364 129.709C304.283 151.777 289.883 183.439 289.883 217.98C289.883 287.061 345.565 342.71 414.687 342.71H477.09V279.386H414.687C391.647 279.386 371.486 266.913 360.925 248.683H539.492V155.615ZM357.085 194.953C358.045 192.074 359.965 189.196 360.925 186.318C363.806 181.52 366.686 177.682 370.526 173.845C382.046 162.331 397.407 155.615 414.687 155.615C416.607 155.615 417.568 155.615 419.488 155.615C434.848 156.574 449.249 163.29 458.849 173.845C462.689 177.682 465.569 181.52 468.449 186.318C470.369 189.196 471.329 192.074 472.29 194.953H357.085Z" fill="white"></path><path d="M821.746 155.615H759.344V93.2495H696.941C662.38 93.2495 631.659 107.641 608.618 129.709C586.537 151.777 572.137 183.439 572.137 217.98C572.137 287.061 627.819 342.71 696.941 342.71H759.344V280.345H696.941C673.901 280.345 653.74 267.872 643.179 249.642H821.746V155.615ZM639.339 194.953C640.299 192.074 642.219 189.196 643.179 186.318C646.059 181.52 648.94 177.682 652.78 173.845C664.3 162.331 679.661 155.615 696.941 155.615C698.861 155.615 699.821 155.615 701.742 155.615C717.102 156.574 731.503 163.29 741.103 173.845C744.943 177.682 747.823 181.52 750.703 186.318C752.623 189.196 753.583 192.074 754.544 194.953H639.339Z" fill="white"></path></g><defs><clipPath id="clip0"><rect width="1656" height="435" fill="white"></rect></clipPath></defs></svg>
