<?xml version="1.0" encoding="UTF-8"?> <svg xmlns="http://www.w3.org/2000/svg" xmlns:xlink="http://www.w3.org/1999/xlink" width="666px" height="179px" viewBox="0 0 666 179"> <!-- Generator: Sketch 48.2 (47327) - http://www.bohemiancoding.com/sketch --> <title>02_g</title> <desc>Created with Sketch.</desc> <defs> <polygon id="path-1" points="0 0.012 665.475 0.012 665.475 178.94 0 178.94"></polygon> </defs> <g id="Page-1" stroke="none" stroke-width="1" fill="none" fill-rule="evenodd"> <g id="02_g"> <mask id="mask-2" fill="white"> <use xlink:href="#path-1"></use> </mask> <g id="Clip-2"></g> <path d="M590.2,66.665 L638.5,114.959 L639,58.011 L590.2,66.665 Z M479,93.011 L524,42.011 L479,42.011 L479,93.011 Z M289.2,142.255 L334.35,142.255 L334.35,99.911 L289.2,99.911 L289.2,142.255 Z M119.1,142.255 L171.95,142.255 L172,120.011 L119.1,119.858 L119.1,142.255 Z M25.3,149.954 L73.6,149.954 L73.6,119.858 L25.3,119.858 L25.3,149.954 Z M422,64.011 L446.35,63.865 L422.549,40.068 L422,64.011 Z" id="Fill-1" fill="#F7CD22" mask="url(#mask-2)"></path> <path d="M422.549,88.012 L446.35,88.012 L446.35,63.865 L422.549,63.865 L422.549,88.012 Z M299.63,68.238 C303.569,71.627 306.059,75.928 307.101,81.14 L262.488,81.14 L262.488,79.885 C264.16,75.116 266.837,71.199 270.523,68.14 C274.528,64.817 279.394,63.155 285.125,63.155 C290.854,63.155 295.689,64.85 299.63,68.238 Z M248.968,55.091 C238.94,65.095 233.926,77.101 233.926,91.11 C233.926,105.122 239.006,117.127 249.163,127.129 C259.321,137.132 271.594,142.133 285.986,142.133 C287.136,142.133 288.002,142.21 289.2,142.255 L289.2,119.158 C288.712,119.176 288.434,119.163 287.939,119.163 C280.907,119.163 275.079,117.323 270.456,113.64 C265.832,109.96 262.941,105.254 261.9,99.911 L334.35,99.911 L334.35,40.068 C334.35,40.068 285.623,40.087 285.009,40.087 C271.008,40.087 258.995,45.089 248.968,55.091 Z M590.463,114.952 L638.471,114.952 L638.471,66.909 L590.463,66.909 L590.463,114.952 Z M614.467,39.884 C586.296,39.884 563.459,62.738 563.459,90.93 C563.459,119.123 586.296,141.977 614.467,141.977 C642.638,141.977 665.475,119.123 665.475,90.93 C665.475,62.738 642.638,39.884 614.467,39.884 Z M399.43,40.108 C385.68,40.456 373.749,45.547 363.635,55.384 C353.151,65.583 347.911,77.492 347.911,91.11 C347.911,104.731 353.151,116.638 363.635,126.835 C374.119,137.035 386.555,142.133 400.947,142.133 C406.026,142.133 410.86,141.4 415.451,139.934 C420.042,138.467 423.768,136.872 426.634,135.144 C429.5,133.418 432.169,131.43 434.643,129.182 C437.118,126.934 438.697,125.337 439.381,124.392 C440.064,123.449 440.602,122.715 440.993,122.193 L424.974,105.185 L422.337,108.508 C420.513,110.659 417.6,112.81 413.595,114.96 C409.591,117.11 405.374,118.186 400.947,118.186 C393.915,118.186 387.825,115.546 382.682,110.268 C377.538,104.99 374.966,98.622 374.966,91.159 C374.966,83.698 377.52,77.328 382.633,72.05 C387.625,66.895 393.612,63.985 400.5,63.865 L422.549,63.865 L422.549,40.068 L399.43,40.108 Z M508.32,91.931 L552.925,42.042 L521.964,42.042 L486.997,82.118 L486.997,0.012 L459.941,0.012 L459.941,140.178 L486.997,140.178 L486.997,115.433 L507.449,92.891 L507.449,115.953 L531.453,115.953 L531.453,91.931 L508.32,91.931 Z M531.453,139.975 L555.457,139.975 L555.457,115.953 L531.453,115.953 L531.453,139.975 Z M66.173,106.163 C61.583,110.855 56.211,113.201 50.057,113.201 C43.904,113.201 38.694,110.92 34.43,106.359 C30.164,101.798 28.032,96.046 28.032,89.106 C28.032,82.167 30.164,76.433 34.43,71.903 C38.694,67.375 43.904,65.11 50.057,65.11 C56.211,65.11 61.583,67.441 66.173,72.099 C70.764,76.758 73.059,82.428 73.059,89.106 C73.059,95.787 70.764,101.471 66.173,106.163 Z M73.25,54.416 L70.031,50.448 C68.078,48.234 64.659,45.952 59.776,43.607 C54.892,41.26 49.65,40.087 44.05,40.087 C32.85,40.087 22.709,44.96 13.626,54.7 C4.542,64.442 0,75.928 0,89.155 C0,102.384 4.542,113.87 13.626,123.611 C22.709,133.353 32.85,138.223 44.05,138.223 C47.631,138.223 51.098,137.719 54.453,136.709 C57.805,135.699 60.508,134.558 62.559,133.288 C64.611,132.016 66.53,130.584 68.322,128.987 C70.112,127.39 71.284,126.283 71.839,125.663 C72.391,125.044 73.339,124.098 73.6,123.708 L73.6,149.954 L100.55,149.954 L100.55,41.817 L73.25,41.817 L73.25,54.416 Z M148.388,81.14 L148.388,79.885 C150.06,75.116 152.737,71.199 156.423,68.14 C160.427,64.817 165.295,63.155 171.025,63.155 C176.754,63.155 181.589,64.85 185.529,68.238 C189.468,71.627 191.959,75.928 193.002,81.14 L148.388,81.14 Z M171.025,40.087 C157.024,40.087 145.01,45.089 134.984,55.091 C134.717,55.357 134.409,55.547 134.15,55.816 L119.1,55.816 L119.1,124.057 L132.4,124.057 C133.341,125.133 134.13,126.096 135.179,127.129 C145.337,137.132 157.558,142.255 171.95,142.255 C177.029,142.255 182.013,141.546 186.799,140.374 C191.585,139.201 195.475,137.849 198.471,136.317 C201.466,134.787 204.298,133.043 206.968,131.087 C209.638,129.133 211.396,127.732 212.243,126.885 L214.001,125.126 L200.034,107.14 L197.201,110.17 C195.443,112.191 192.399,114.195 188.069,116.182 C183.738,118.17 179.034,119.163 173.955,119.163 C166.923,119.163 161.094,117.323 156.472,113.64 C152.352,110.362 149.664,106.418 148.388,101.819 L147.8,99.911 L218.85,99.911 L219.9,89.062 C219.9,75.052 215.303,63.465 205.992,54.114 C196.679,44.764 185.024,40.087 171.025,40.087 Z M25.3,179.001 L73.6,179.001 L73.6,149.954 L25.3,149.954 L25.3,179.001 Z" id="Fill-3" fill="#0A0B09" mask="url(#mask-2)"></path> </g> </g> </svg> 